<svg xmlns="http://www.w3.org/2000/svg" width="68.35" height="90.5667">
    <path d="M 11.391666412353516 7.594444274902344 q 0 7.594444274902344 7.594444274902344 7.594444274902344 l 30.377777099609375 0 q 7.594444274902344 0 7.594444274902344 -7.594444274902344 q 0 -7.594444274902344 -7.594444274902344 -7.594444274902344 l -30.377777099609375 0 q -7.594444274902344 0 -7.594444274902344 7.594444274902344"
          style="fill: none" stroke="black"/>
    <g transform="translate(34.17499923706055 7.594444274902344)">
        <text x="0" y="0" dominant-baseline="middle" text-anchor="middle">
            <tspan x="0" dy="0em">start1</tspan>
        </text>
    </g>
    <path d="M 34.17499923706055 30.188888549804688 L 34.17499923706055 15.188888549804688" style="fill: white"
          stroke="black"/>
    <path d="M 11.391666412353516 37.78333282470703 q 0 7.594444274902344 7.594444274902344 7.594444274902344 l 30.377777099609375 0 q 7.594444274902344 0 7.594444274902344 -7.594444274902344 q 0 -7.594444274902344 -7.594444274902344 -7.594444274902344 l -30.377777099609375 0 q -7.594444274902344 0 -7.594444274902344 7.594444274902344"
          style="fill: none" stroke="black"/>
    <g transform="translate(34.17499923706055 37.78333282470703)">
        <text x="0" y="0" dominant-baseline="middle" text-anchor="middle">
            <tspan x="0" dy="0em">start2</tspan>
        </text>
    </g>
    <path d="M 34.17499923706055 60.377777099609375 L 34.17499923706055 45.377777099609375" style="fill: white"
          stroke="black"/>
    <path d="M 11.391666412353516 67.97222137451172 q 0 7.594444274902344 7.594444274902344 7.594444274902344 l 30.377777099609375 0 q 7.594444274902344 0 7.594444274902344 -7.594444274902344 q 0 -7.594444274902344 -7.594444274902344 -7.594444274902344 l -30.377777099609375 0 q -7.594444274902344 0 -7.594444274902344 7.594444274902344"
          style="fill: none" stroke="black"/>
    <g transform="translate(34.17499923706055 67.97222137451172)">
        <text x="0" y="0" dominant-baseline="middle" text-anchor="middle">
            <tspan x="0" dy="0em">start3</tspan>
        </text>
    </g>
</svg>