<svg xmlns="http://www.w3.org/2000/svg" width="180.3" height="110.133"><path d="M 30.049999237060547 20.03333282470703 q 0 20.03333282470703 20.03333282470703 20.03333282470703 l 80.13333129882812 0 q 20.03333282470703 0 20.03333282470703 -20.03333282470703 q 0 -20.03333282470703 -20.03333282470703 -20.03333282470703 l -80.13333129882812 0 q -20.03333282470703 0 -20.03333282470703 20.03333282470703" style="fill: white" stroke="black"/>
<g transform="translate(90.14999771118164 20.03333282470703)">
<text x="0" y="0" dominant-baseline="middle" text-anchor="middle"><tspan x="0" dy="0em">function1(a1, a2)</tspan></text>
</g>
<path d="M 90.14999771118164 55.06666564941406 L 90.14999771118164 40.06666564941406" style="fill: white" stroke="black"/>
<path d="M 30.049999237060547 75.0999984741211 q 0 20.03333282470703 20.03333282470703 20.03333282470703 l 80.13333129882812 0 q 20.03333282470703 0 20.03333282470703 -20.03333282470703 q 0 -20.03333282470703 -20.03333282470703 -20.03333282470703 l -80.13333129882812 0 q -20.03333282470703 0 -20.03333282470703 20.03333282470703" style="fill: white" stroke="black"/>
<g transform="translate(90.14999771118164 75.0999984741211)">
<text x="0" y="0" dominant-baseline="middle" text-anchor="middle"><tspan x="0" dy="0em">Конец</tspan></text>
</g></svg>