<svg xmlns="http://www.w3.org/2000/svg" width="472.975" height="248.289"><path d="M 236.48750114440918 0 L 236.48750114440918 -15" style="fill: none" stroke="black"></path>
<circle r="16.03611119588216" cx="72.16250038146973" cy="31.03611119588216" fill="none" stroke="black" stroke-width="1"></circle>
<g class="text-group" transform="translate(72.16250038146973 31.03611119588216)" data-aspect="1" data-widthaspect="0.3333333333333333">
<text x="0" y="0" dominant-baseline="middle" text-anchor="middle"><tspan x="0" dy="0em">1</tspan></text>
</g>
<circle r="16.03611119588216" cx="236.48750114440918" cy="31.03611119588216" fill="none" stroke="black" stroke-width="1"></circle>
<g class="text-group" transform="translate(236.48750114440918 31.03611119588216)" data-aspect="1" data-widthaspect="0.3333333333333333">
<text x="0" y="0" dominant-baseline="middle" text-anchor="middle"><tspan x="0" dy="0em">2</tspan></text>
</g>
<circle r="16.03611119588216" cx="400.81250190734863" cy="31.03611119588216" fill="none" stroke="black" stroke-width="1"></circle>
<g class="text-group" transform="translate(400.81250190734863 31.03611119588216)" data-aspect="1" data-widthaspect="0.3333333333333333">
<text x="0" y="0" dominant-baseline="middle" text-anchor="middle"><tspan x="0" dy="0em">3</tspan></text>
</g>
<path d="M 72.16250038146973 92.07222239176431 L 72.16250038146973 47.07222239176432" style="fill: none" stroke="black"></path>
<path d="M 236.48750114440918 92.07222239176431 L 236.48750114440918 47.07222239176432" style="fill: none" stroke="black"></path>
<path d="M 400.81250190734863 92.07222239176431 L 400.81250190734863 47.07222239176432" style="fill: none" stroke="black"></path>
<path d="M 72.16250038146973 92.07222239176431 L 400.81250190734863 92.07222239176431" style="fill: none" stroke="black"></path>
<path d="M 236.48750114440918 122.07222239176431 L 236.48750114440918 92.07222239176431" style="fill: none" stroke="black"></path>
<path d="M 164.32500076293945 122.07222239176431 l 24.054166793823242 64.14444478352864 l 120.27083396911621 0 l -24.054166793823242 -64.14444478352864 Z" style="fill: none" stroke="black"></path>
<g class="text-group" transform="translate(236.48750114440918 154.14444478352863)" data-aspect="0.6666666666666666" data-widthaspect="1">
<text x="0" y="0" dominant-baseline="middle" text-anchor="middle"><tspan x="0" dy="0em">Hello, world!</tspan></text>
</g>
<path d="M 236.48750114440918 201.21666717529297 L 236.48750114440918 186.21666717529297" style="fill: none" stroke="black"></path>
<path d="M 188.3791675567627 217.25277837117514 q 0 16.03611119588216 16.03611119588216 16.03611119588216 l 64.14444478352866 0 q 16.03611119588216 0 16.03611119588216 -16.03611119588216 q 0 -16.03611119588216 -16.03611119588216 -16.03611119588216 l -64.14444478352866 0 q -16.03611119588216 0 -16.03611119588216 16.03611119588216" style="fill: none" stroke="black"></path>
<g class="text-group" transform="translate(236.48750114440918 217.25277837117514)" data-aspect="0.3333333333333333" data-widthaspect="1">
<text x="0" y="0" dominant-baseline="middle" text-anchor="middle"><tspan x="0" dy="0em">Конец</tspan></text>
</g>
  <rect width="100%" height="100%" fill="aliceblue" style="z-index: 1"/></svg>