<svg xmlns="http://www.w3.org/2000/svg" width="314.5" height="145.667"><path d="M 157.25 0 L 157.25 -15" style="fill: white" stroke="black"/>
<path d="M 15.25 25.166666666666664 q 0 10.166666666666666 10.166666666666666 10.166666666666666 l 40.66666666666667 0 q 10.166666666666666 0 10.166666666666666 -10.166666666666666 q 0 -10.166666666666666 -10.166666666666666 -10.166666666666666 l -40.66666666666667 0 q -10.166666666666666 0 -10.166666666666666 10.166666666666666" style="fill: white" stroke="black"/>
<g class="text-group" transform="translate(45.75 25.166666666666664)" data-aspect="0.3333333333333333" data-widthaspect="1">
<text x="0" y="0" dominant-baseline="middle" text-anchor="middle"><tspan x="0" dy="0em">Начало</tspan></text>
</g>
<path d="M 45.75 50.33333333333333 L 45.75 35.33333333333333" style="fill: white" stroke="black"/>
<circle r="10.166666666666666" cx="45.74999999999999" cy="60.49999999999999" fill="none" stroke="black" stroke-width="1"></circle>
<g class="text-group" transform="translate(45.74999999999999 60.49999999999999)" data-aspect="1" data-widthaspect="0.3333333333333333">
<text x="0" y="0" dominant-baseline="middle" text-anchor="middle"><tspan x="0" dy="0em">1</tspan></text>
</g>
<circle r="10.166666666666666" cx="157.25" cy="25.166666666666664" fill="none" stroke="black" stroke-width="1"></circle>
<g class="text-group" transform="translate(157.25 25.166666666666664)" data-aspect="1" data-widthaspect="0.3333333333333333">
<text x="0" y="0" dominant-baseline="middle" text-anchor="middle"><tspan x="0" dy="0em">1</tspan></text>
</g>
<path d="M 157.25 50.33333333333333 L 157.25 35.33333333333333" style="fill: white" stroke="black"/>
<circle r="10.166666666666666" cx="157.25" cy="60.49999999999999" fill="none" stroke="black" stroke-width="1"></circle>
<g class="text-group" transform="translate(157.25 60.49999999999999)" data-aspect="1" data-widthaspect="0.3333333333333333">
<text x="0" y="0" dominant-baseline="middle" text-anchor="middle"><tspan x="0" dy="0em">2</tspan></text>
</g>
<circle r="10.166666666666666" cx="268.75" cy="25.166666666666664" fill="none" stroke="black" stroke-width="1"></circle>
<g class="text-group" transform="translate(268.75 25.166666666666664)" data-aspect="1" data-widthaspect="0.3333333333333333">
<text x="0" y="0" dominant-baseline="middle" text-anchor="middle"><tspan x="0" dy="0em">2</tspan></text>
</g>
<path d="M 268.75 50.33333333333333 L 268.75 35.33333333333333" style="fill: white" stroke="black"/>
<path d="M 238.25 60.49999999999999 q 0 10.166666666666666 10.166666666666666 10.166666666666666 l 40.66666666666667 0 q 10.166666666666666 0 10.166666666666666 -10.166666666666666 q 0 -10.166666666666666 -10.166666666666666 -10.166666666666666 l -40.66666666666667 0 q -10.166666666666666 0 -10.166666666666666 10.166666666666666" style="fill: white" stroke="black"/>
<g class="text-group" transform="translate(268.75 60.49999999999999)" data-aspect="0.3333333333333333" data-widthaspect="1">
<text x="0" y="0" dominant-baseline="middle" text-anchor="middle"><tspan x="0" dy="0em">Конец</tspan></text>
</g></svg>