<svg xmlns="http://www.w3.org/2000/svg" width="144.325" height="173.289">
    <rect width="100%" height="100%" fill="white" /><path d="M 24.054166793823242 16.03611119588216 q 0 16.03611119588216 16.03611119588216 16.03611119588216 l 64.14444478352866 0 q 16.03611119588216 0 16.03611119588216 -16.03611119588216 q 0 -16.03611119588216 -16.03611119588216 -16.03611119588216 l -64.14444478352866 0 q -16.03611119588216 0 -16.03611119588216 16.03611119588216" style="fill: none" stroke="black"></path>
<g class="text-group" transform="translate(72.16250038146973 16.03611119588216)" data-aspect="0.3333333333333333" data-widthaspect="1">
<text x="0" y="0" dominant-baseline="middle" text-anchor="middle"><tspan x="0" dy="0em">CustomStart</tspan></text>
</g>
<path d="M 72.16250038146973 47.07222239176432 L 72.16250038146973 32.07222239176432" style="fill: none" stroke="black"></path>
<path d="M 0 47.07222239176432 l 24.054166793823242 64.14444478352864 l 120.27083396911621 0 l -24.054166793823242 -64.14444478352864 Z" style="fill: none" stroke="black"></path>
<g class="text-group" transform="translate(72.16250038146973 79.14444478352864)" data-aspect="0.6666666666666666" data-widthaspect="1">
<text x="0" y="0" dominant-baseline="middle" text-anchor="middle"><tspan x="0" dy="0em">Hello, world!</tspan></text>
</g>
<path d="M 72.16250038146973 126.21666717529297 L 72.16250038146973 111.21666717529297" style="fill: none" stroke="black"></path>
<path d="M 24.054166793823242 142.25277837117514 q 0 16.03611119588216 16.03611119588216 16.03611119588216 l 64.14444478352866 0 q 16.03611119588216 0 16.03611119588216 -16.03611119588216 q 0 -16.03611119588216 -16.03611119588216 -16.03611119588216 l -64.14444478352866 0 q -16.03611119588216 0 -16.03611119588216 16.03611119588216" style="fill: none" stroke="black"></path>
<g class="text-group" transform="translate(72.16250038146973 142.25277837117514)" data-aspect="0.3333333333333333" data-widthaspect="1">
<text x="0" y="0" dominant-baseline="middle" text-anchor="middle"><tspan x="0" dy="0em">CustomEnd</tspan></text>
</g></svg>