<svg xmlns="http://www.w3.org/2000/svg" width="89.7" height="69.8667"><path d="M 14.949999809265137 9.96666653951009 q 0 9.96666653951009 9.96666653951009 9.96666653951009 l 39.86666615804037 0 q 9.96666653951009 0 9.96666653951009 -9.96666653951009 q 0 -9.96666653951009 -9.96666653951009 -9.96666653951009 l -39.86666615804037 0 q -9.96666653951009 0 -9.96666653951009 9.96666653951009" style="fill: none; color: black"/>
<g transform="translate(44.84999942779541 9.96666653951009)">
<text x="0" y="0" dominant-baseline="middle" text-anchor="middle"><tspan x="0" dy="0em">Начало</tspan></text>
</g>
<path d="M 44.84999942779541 34.93333307902018 L 44.84999942779541 19.93333307902018" style="fill: none; color: black"/>
<path d="M 14.949999809265137 44.89999961853027 q 0 9.96666653951009 9.96666653951009 9.96666653951009 l 39.86666615804037 0 q 9.96666653951009 0 9.96666653951009 -9.96666653951009 q 0 -9.96666653951009 -9.96666653951009 -9.96666653951009 l -39.86666615804037 0 q -9.96666653951009 0 -9.96666653951009 9.96666653951009" style="fill: none; color: black"/>
<g transform="translate(44.84999942779541 44.89999961853027)">
<text x="0" y="0" dominant-baseline="middle" text-anchor="middle"><tspan x="0" dy="0em">Custom</tspan></text>
</g></svg>